<svg width="32" height="32" viewBox="0 0 32 32" xmlns="http://www.w3.org/2000/svg">
  <defs>
    <linearGradient id="faviconGradient" x1="0%" y1="0%" x2="100%" y2="100%">
      <stop offset="0%" style="stop-color:#4338ca;stop-opacity:1" />
      <stop offset="50%" style="stop-color:#7c3aed;stop-opacity:1" />
      <stop offset="100%" style="stop-color:#0891b2;stop-opacity:1" />
    </linearGradient>
  </defs>
  
  <!-- Simplified Neural Network for favicon -->
  <!-- Central node - larger and more prominent -->
  <circle cx="16" cy="16" r="3.5" fill="url(#faviconGradient)" stroke="#ffffff" stroke-width="1"/>
  
  <!-- 8 outer nodes positioned around the center -->
  <circle cx="16" cy="6" r="2" fill="#4338ca"/>
  <circle cx="24" cy="8" r="2" fill="#7c3aed"/>
  <circle cx="26" cy="16" r="2" fill="#0891b2"/>
  <circle cx="24" cy="24" r="2" fill="#4338ca"/>
  <circle cx="16" cy="26" r="2" fill="#7c3aed"/>
  <circle cx="8" cy="24" r="2" fill="#0891b2"/>
  <circle cx="6" cy="16" r="2" fill="#4338ca"/>
  <circle cx="8" cy="8" r="2" fill="#7c3aed"/>
  
  <!-- Connecting lines from center to all 8 outer nodes -->
  <line x1="16" y1="16" x2="16" y2="6" stroke="#4338ca" stroke-width="1.5"/>
  <line x1="16" y1="16" x2="24" y2="8" stroke="#7c3aed" stroke-width="1.5"/>
  <line x1="16" y1="16" x2="26" y2="16" stroke="#0891b2" stroke-width="1.5"/>
  <line x1="16" y1="16" x2="24" y2="24" stroke="#4338ca" stroke-width="1.5"/>
  <line x1="16" y1="16" x2="16" y2="26" stroke="#7c3aed" stroke-width="1.5"/>
  <line x1="16" y1="16" x2="8" y2="24" stroke="#0891b2" stroke-width="1.5"/>
  <line x1="16" y1="16" x2="6" y2="16" stroke="#4338ca" stroke-width="1.5"/>
  <line x1="16" y1="16" x2="8" y2="8" stroke="#7c3aed" stroke-width="1.5"/>
</svg>